<svg width="146" height="146" viewBox="0 0 146 146" fill="none" xmlns="http://www.w3.org/2000/svg">
<g clip-path="url(#clip0_322_16)">
<path d="M57.3334 2.1333C43.6001 5.06663 32.5334 11.2 21.8667 21.8666C-7.46661 51.2 -6.66661 97.4666 23.6001 125.467C34.2667 135.2 46.0001 140.933 60.9334 143.6C72.0001 145.6 73.8667 145.6 84.8001 143.6C101.067 140.533 111.733 134.933 123.333 123.333C134.8 112 140.4 101.2 143.467 84.9333C145.6 74 145.6 72.2666 143.6 60.9333C140.667 44.4 135.2 33.7333 123.333 22C112.533 11.2 101.333 4.9333 87.3334 1.99997C76.0001 -0.400032 68.6667 -0.400032 57.3334 2.1333ZM112 39.3333V49.3333H89.0667H66.1334L59.0667 45.0666C55.2001 42.6666 52.0001 40.4 52.0001 39.8666C52.0001 39.3333 54.8001 36.8 58.4001 34.2666L64.6667 29.4666H88.4001L112 29.3333V39.3333ZM112 63.3333V73.3333H88.6667H65.3334L58.6667 68.9333C55.0667 66.6666 52.0001 64.2666 52.0001 63.7333C52.0001 63.2 55.2001 60.6666 58.9334 58L66.0001 53.3333H88.9334H112V63.3333ZM40.8001 59.4666C44.6667 63.2 44.4001 67.8666 40.0001 72.6666C38.6667 74.1333 37.2001 76.6666 36.6667 78.2666C36.1334 80.4 34.8001 81.3333 32.5334 81.3333C28.4001 81.3333 28.1334 76.5333 32.1334 71.4666C36.0001 66.5333 35.0667 63.2 29.7334 63.6C26.6667 63.8666 25.4667 63.3333 24.9334 61.3333C23.3334 55.3333 35.3334 53.8666 40.8001 59.4666ZM112 87.3333V97.3333H88.6667H65.3334L58.6667 93.2C55.0667 90.9333 52.0001 88.6666 52.0001 88.1333C52.0001 87.4666 55.0667 84.8 58.9334 82.1333L65.8667 77.3333H88.9334H112V87.3333ZM36.6667 88.6666C36.6667 92.2666 36.2667 92.6666 32.6667 92.6666C29.8667 92.6666 28.5334 92 28.2667 90.2666C27.4667 85.8666 29.0667 83.7333 32.9334 84.2666C36.1334 84.6666 36.6667 85.3333 36.6667 88.6666ZM112 112V121.333H88.4001H64.9334L58.4001 117.2C54.8001 114.8 52.1334 112.533 52.2667 111.867C52.5334 111.333 55.0667 109.067 58.0001 106.8L63.3334 102.8H87.7334L112 102.667V112Z" fill="#525252"/>
<path d="M68.9334 34.6666C68.5334 35.7333 67.8668 38.4 67.3334 40.5333C66.5334 44 66.8001 44.2666 68.6668 42.6666C70.4001 41.2 71.0668 41.3333 72.6668 43.4666C75.2001 46.9333 74.9334 44.5333 72.0001 38C70.4001 34.4 69.3334 33.3333 68.9334 34.6666Z" fill="#525252"/>
<path d="M68.6668 60.2667C67.6001 63.0667 70.0001 70 72.2668 70.4C73.4668 70.6667 75.3335 69.7333 76.6668 68.5333C78.9335 66.2667 78.8001 66 76.4001 64C74.9335 62.8 73.4668 61.0667 72.9335 60C72.4001 58.4 72.1335 58.5333 72.1335 60.2667C72.0001 61.6 71.3334 62.6667 70.5334 62.6667C69.7334 62.6667 69.3334 61.7333 69.8668 60.6667C70.2668 59.6 70.2668 58.6667 69.8668 58.6667C69.6001 58.6667 68.9334 59.4667 68.6668 60.2667ZM76.6668 65.2C77.6001 66.8 72.8001 69.6 71.4668 68.4C71.0668 68 70.6668 66.8 70.6668 65.7333C70.6668 63.7333 75.4668 63.3333 76.6668 65.2Z" fill="#525252"/>
<path d="M68.0001 85.3333C67.2001 86.9333 66.9334 89.2 67.3334 90.6667C68.2668 93.7333 73.0668 95.4667 75.0668 93.4667C76.1334 92.4 75.6001 92 73.0668 92C68.8001 92 67.6001 89.2 70.1334 85.4667C71.2001 84 71.6001 82.6667 70.8001 82.6667C70.0001 82.6667 68.8001 83.8667 68.0001 85.3333Z" fill="#525252"/>
<path d="M74.4 107.467C78 110 78.1333 113.467 74.6667 115.733C71.6 117.6 71.2 117.067 70.2667 110C69.7333 106.267 69.7333 106.267 69.6 110.667C69.4667 113.2 69.8667 116.133 70.5333 117.2C71.6 118.8 72.2667 118.8 75.2 116.8C79.3333 114.133 79.8667 108.667 76.1333 106.667C72.1333 104.667 71.0667 105.067 74.4 107.467Z" fill="#525252"/>
</g>
<rect x="0.5" y="0.5" width="144.333" height="144.333" stroke="black"/>
<defs>
<clipPath id="clip0_322_16">
<rect width="145.333" height="145.333" fill="white"/>
</clipPath>
</defs>
</svg>
