<?xml version="1.0" standalone="no"?>
<!DOCTYPE svg PUBLIC "-//W3C//DTD SVG 20010904//EN"
 "http://www.w3.org/TR/2001/REC-SVG-20010904/DTD/svg10.dtd">
<svg version="1.0" xmlns="http://www.w3.org/2000/svg"
 width="66.000000pt" height="72.000000pt" viewBox="0 0 66.000000 72.000000"
 preserveAspectRatio="xMidYMid meet">

<g transform="translate(0.000000,72.000000) scale(0.100000,-0.100000)"
fill="#000000" stroke="none">
<path d="M286 670 c-39 -12 -83 -56 -97 -97 -15 -47 -4 -97 32 -138 88 -100
249 -38 249 95 0 95 -94 167 -184 140z"/>
<path d="M62 317 c-20 -21 -22 -34 -22 -119 0 -137 5 -142 149 -146 88 -3 111
-1 111 10 0 7 -31 71 -69 143 l-68 130 -40 3 c-30 2 -43 -2 -61 -21z"/>
<path d="M421 198 l-68 -143 91 -3 c162 -5 176 7 176 143 0 88 -2 98 -25 120
-18 19 -35 25 -65 25 l-41 0 -68 -142z"/>
<path d="M288 283 l-26 -28 32 -70 32 -69 32 68 c18 37 32 70 32 73 0 8 -55
52 -66 53 -5 0 -22 -12 -36 -27z"/>
</g>
</svg>
