<svg width="42" height="42" viewBox="0 0 42 42" fill="none" xmlns="http://www.w3.org/2000/svg">
<path d="M21 0.707886C9.7793 0.707886 0.6875 9.83921 0.6875 21.1087C0.6875 32.3782 9.7793 41.5095 21 41.5095C32.2207 41.5095 41.3125 32.3782 41.3125 21.1087C41.3125 9.83921 32.2207 0.707886 21 0.707886ZM21 39.8127C15.2773 39.8127 10.1504 37.2038 6.73242 33.1138C8.4707 32.3586 12.8066 30.7893 15.5508 29.985C15.7656 29.9164 15.8047 29.9066 15.8047 28.9356C15.8047 27.8959 15.6875 27.1603 15.4336 26.6208C15.0918 25.8852 14.6816 24.6396 14.5352 23.5215C14.125 23.0409 13.5684 22.0993 13.207 20.2946C12.8945 18.7057 13.041 18.127 13.2461 17.5876C13.2656 17.5288 13.2949 17.4699 13.3047 17.4111C13.3828 17.0482 13.2754 15.1062 13.002 13.6055C12.8164 12.5757 13.0508 10.3885 14.4668 8.57397C15.3555 7.42642 17.0645 6.02387 20.1309 5.82771H21.8398C24.9551 6.02387 26.6641 7.42642 27.5527 8.57397C28.9688 10.3885 29.2031 12.5757 29.0078 13.6055C28.7344 15.1062 28.627 17.0383 28.7051 17.4111C28.7148 17.4699 28.7441 17.5288 28.7637 17.5778C28.9688 18.1172 29.125 18.6959 28.8027 20.2848C28.4414 22.0895 27.8848 23.0311 27.4746 23.5117C27.3281 24.6298 26.918 25.8656 26.5762 26.611C26.2539 27.2878 25.9316 28.0921 25.9316 28.8963C25.9316 29.8673 25.9707 29.8771 26.1953 29.9458C28.8027 30.7206 33.2949 32.2801 35.2773 33.0942C31.8594 37.194 26.7324 39.8127 21 39.8127Z" fill="black"/>
</svg>
