<svg width="146" height="146" viewBox="0 0 146 146" fill="none" xmlns="http://www.w3.org/2000/svg">
<path d="M26 11.4667C24 12.5333 18.4 16.1333 13.8667 19.4667L5.33337 25.4667V35.0667C5.33337 48 9.20004 61.6 18 79.3333C30.8 105.067 52.2667 129.6 65.7334 133.6C70.4 134.933 71.6 134.8 80.2667 130.533C91.4667 125.2 96 121.867 96 119.067C96 115.333 83.4667 94.8 80.2667 93.4667C77.8667 92.2667 75.7334 92.8 69.4667 96L61.6 99.8667L56.6667 94.5333C49.8667 86.9333 42.8 75.7333 37.7334 64C31.8667 50.5333 32 49.4667 40 44.9333C49.6 39.6 49.7334 37.2 41.7334 23.0667C34.5334 10.5333 31.7334 8.4 26 11.4667Z" fill="#525252"/>
<path d="M54.9333 36.2667C55.3333 41.8667 55.4667 42 70.9333 52.5333L86.6667 63.2L102.933 52C112 45.7333 122.533 38.5333 126.533 35.7333L133.733 30.6667H94.1333H54.5333L54.9333 36.2667Z" fill="#525252"/>
<path d="M114.667 52.2667C101.067 61.6 88.9334 69.6 87.7334 70C86.1334 70.5333 79.6 66.8 67.8667 58.8L50.2667 46.6667L46.4 49.0667C44.1334 50.2667 42 52.1333 41.7334 53.0667C40.5334 56.1333 50.8 76.1333 59.4667 87.6L62.6667 91.8667L69.4667 88.4C75.8667 84.9333 76.5334 84.9333 81.7334 86.8C86.2667 88.2667 88.1334 90 91.8667 96.2667L96.4 104H117.6C133.467 104 138.933 103.6 139.333 102.267C139.733 101.333 139.867 85.8667 139.733 68L139.333 35.3333L114.667 52.2667Z" fill="#525252"/>
</svg>
