<svg width="60" height="46" viewBox="0 0 60 46" fill="none" xmlns="http://www.w3.org/2000/svg">
<path d="M58.5926 13.625H51.5766L49.6266 8.75C47.6227 3.73789 42.8403 0.5 37.4415 0.5H22.5587C17.161 0.5 12.3774 3.73789 10.3723 8.75L8.42233 13.625H1.40748C0.49225 13.625 -0.179235 14.4852 0.0434215 15.3723L0.746546 18.1848C0.902406 18.8105 1.46491 19.25 2.11061 19.25H4.46256C2.88873 20.6246 1.87506 22.6227 1.87506 24.875V30.5C1.87506 32.3891 2.59694 34.0941 3.75006 35.4137V41.75C3.75006 43.8207 5.42936 45.5 7.50006 45.5H11.2501C13.3208 45.5 15.0001 43.8207 15.0001 41.75V38H45.0001V41.75C45.0001 43.8207 46.6794 45.5 48.7501 45.5H52.5001C54.5708 45.5 56.2501 43.8207 56.2501 41.75V35.4137C57.4032 34.0953 58.1251 32.3902 58.1251 30.5V24.875C58.1251 22.6227 57.1114 20.6246 55.5387 19.25H57.8907C58.5364 19.25 59.0989 18.8105 59.2548 18.1848L59.9579 15.3723C60.1794 14.4852 59.5079 13.625 58.5926 13.625ZM17.3356 11.5355C18.1899 9.40039 20.2583 8 22.5587 8H37.4415C39.7419 8 41.8102 9.40039 42.6645 11.5355L45.0001 17.375H15.0001L17.3356 11.5355ZM11.2501 30.4766C9.00006 30.4766 7.50006 28.9812 7.50006 26.7383C7.50006 24.4953 9.00006 23 11.2501 23C13.5001 23 16.8751 26.3645 16.8751 28.6074C16.8751 30.8504 13.5001 30.4766 11.2501 30.4766ZM48.7501 30.4766C46.5001 30.4766 43.1251 30.8504 43.1251 28.6074C43.1251 26.3645 46.5001 23 48.7501 23C51.0001 23 52.5001 24.4953 52.5001 26.7383C52.5001 28.9812 51.0001 30.4766 48.7501 30.4766Z" fill="black"/>
</svg>
