<svg width="35" height="40" viewBox="0 0 35 40" fill="none" xmlns="http://www.w3.org/2000/svg">
<path d="M17.5 10H29.1667C30.0417 10 30.625 9.33335 30.625 8.33335C30.625 7.33335 30.0417 6.66669 29.1667 6.66669H17.5C16.625 6.66669 16.0417 7.33335 16.0417 8.33335C16.0417 9.33335 16.625 10 17.5 10Z" fill="#525252"/>
<path d="M29.1667 18.3333H17.5C16.625 18.3333 16.0417 19 16.0417 20C16.0417 21 16.625 21.6667 17.5 21.6667H29.1667C30.0417 21.6667 30.625 21 30.625 20C30.625 19 30.0417 18.3333 29.1667 18.3333Z" fill="#525252"/>
<path d="M29.1667 30H17.5C16.625 30 16.0417 30.6667 16.0417 31.6667C16.0417 32.6667 16.625 33.3333 17.5 33.3333H29.1667C30.0417 33.3333 30.625 32.6667 30.625 31.6667C30.625 30.6667 30.0417 30 29.1667 30Z" fill="#525252"/>
<path d="M10.5 5.33331L8.02083 9.49998L7.29167 8.66665C6.70833 7.99998 5.83333 7.99998 5.25 8.66665C4.66667 9.33332 4.66667 10.3333 5.25 11L7.14583 13.3333C7.4375 13.6667 7.72917 13.8333 8.16667 13.8333H8.3125C8.75 13.8333 9.1875 13.5 9.33333 13.1667L12.8333 7.16664C13.2708 6.33331 13.125 5.33331 12.5417 4.83331C11.8125 4.33331 10.9375 4.49997 10.5 5.33331Z" fill="#525252"/>
<path d="M10.5 17L8.02083 21.1667L7.29167 20.3333C6.70833 19.6667 5.83333 19.6667 5.25 20.3333C4.66667 21 4.66667 22 5.25 22.6667L7.14583 25C7.4375 25.3333 7.72917 25.5 8.16667 25.5H8.3125C8.75 25.5 9.1875 25.1667 9.33333 24.8333L12.8333 18.8333C13.2708 18 13.125 17 12.3958 16.5C11.8125 16 10.9375 16.1667 10.5 17Z" fill="#525252"/>
<path d="M10.5 28.6667L8.02083 32.8333L7.29167 32C6.70833 31.3333 5.83333 31.3333 5.25 32C4.66667 32.6667 4.66667 33.6667 5.25 34.3333L7.14583 36.6667C7.4375 37 7.72917 37.1667 8.16667 37.1667H8.3125C8.75 37.1667 9.1875 36.8333 9.33333 36.5L12.8333 30.5C13.2708 29.6667 13.125 28.6667 12.3958 28.1667C11.8125 27.6667 10.9375 27.8333 10.5 28.6667Z" fill="#525252"/>
</svg>
