<svg width="34" height="45" viewBox="0 0 34 45" fill="none" xmlns="http://www.w3.org/2000/svg">
<path d="M31.9531 30.9678L19.6484 43.7012C18.9688 44.4629 18.043 44.8437 17.0234 44.8437C16.0039 44.8437 15.0898 44.4629 14.3984 43.7012L2.04687 30.9678C0.582031 29.457 0.582031 26.9941 2.04687 25.4834C3.51172 23.9727 5.87891 23.9727 7.34375 25.4834L13.25 31.6025V4.05371C13.25 1.9082 14.9258 0.168945 17 0.168945C19.0742 0.168945 20.75 1.9082 20.75 4.05371V31.6025L26.6562 25.4834C28.1211 23.9727 30.4883 23.9727 31.9531 25.4834C33.418 26.9941 33.418 29.4443 31.9531 30.9678Z" fill="black"/>
</svg>
