<?xml version="1.0" standalone="no"?>
<!DOCTYPE svg PUBLIC "-//W3C//DTD SVG 20010904//EN"
 "http://www.w3.org/TR/2001/REC-SVG-20010904/DTD/svg10.dtd">
<svg version="1.0" xmlns="http://www.w3.org/2000/svg"
 width="48.000000pt" height="48.000000pt" viewBox="0 0 48.000000 48.000000"
 preserveAspectRatio="xMidYMid meet">

<g transform="translate(0.000000,48.000000) scale(0.100000,-0.100000)"
fill="#000000" stroke="none">
<path d="M17 399 c-15 -9 -17 -28 -17 -159 0 -137 2 -150 19 -160 29 -15 434
-13 449 2 17 17 17 299 0 316 -15 15 -424 16 -451 1z m328 -109 c-49 -50 -97
-90 -105 -90 -8 0 -56 40 -105 90 l-90 90 195 0 195 0 -90 -90z m-258 -107
l-57 -58 0 115 0 115 57 -58 58 -57 -58 -57z m363 55 l0 -113 -57 57 -58 58
55 55 c30 30 56 55 57 55 2 0 3 -51 3 -112z m-210 -68 c10 0 32 11 48 24 l29
25 59 -60 58 -59 -194 0 -194 0 58 59 59 60 29 -25 c16 -13 38 -24 48 -24z"/>
</g>
</svg>
