<?xml version="1.0" standalone="no"?>
<!DOCTYPE svg PUBLIC "-//W3C//DTD SVG 20010904//EN"
 "http://www.w3.org/TR/2001/REC-SVG-20010904/DTD/svg10.dtd">
<svg version="1.0" xmlns="http://www.w3.org/2000/svg"
 width="48.000000pt" height="48.000000pt" viewBox="0 0 48.000000 48.000000"
 preserveAspectRatio="xMidYMid meet">

<g transform="translate(0.000000,48.000000) scale(0.100000,-0.100000)"
fill="#000000" stroke="none">
<path d="M26 454 c-13 -13 -16 -46 -16 -209 0 -106 3 -200 6 -209 5 -13 26
-16 125 -16 l119 0 0 85 0 85 -30 0 c-28 0 -30 3 -30 35 0 32 2 35 30 35 29 0
30 2 30 44 0 60 23 87 83 93 l47 6 0 -37 c0 -33 -2 -36 -30 -36 -28 0 -30 -3
-30 -35 0 -32 2 -35 31 -35 28 0 30 -2 27 -32 -2 -28 -8 -34 -30 -36 l-28 -3
0 -85 0 -84 65 0 65 0 0 219 c0 190 -2 220 -16 225 -9 3 -103 6 -209 6 -163 0
-196 -3 -209 -16z"/>
</g>
</svg>
