<svg width="47" height="47" viewBox="0 0 47 47" fill="none" xmlns="http://www.w3.org/2000/svg">
<g clip-path="url(#clip0_321_11)">
<path d="M31.8162 0.73225C31.4078 0.759178 31.0365 0.793247 30.7086 0.833332H36.6666H38.5419L37.3061 0.765949L37.3011 0.765629C35.2526 0.633465 33.3079 0.633896 31.8162 0.73225ZM44.5672 8.9575L44.5 7.56767V8.66666C44.5 10.3969 44.4918 11.7372 44.4303 12.7673C44.3695 13.7863 44.2545 14.562 44.0091 15.1312C43.7454 15.7432 43.3326 16.1126 42.7498 16.3042C42.2184 16.4788 41.5557 16.5 40.8 16.5C39.9094 16.5 39.027 16.6278 38.3318 16.8441C37.9841 16.9523 37.6972 17.0783 37.4834 17.2117C37.2643 17.3484 37.1568 17.4711 37.1139 17.5569L37.0999 17.5848L37.0827 17.6107C36.648 18.2626 35.8461 18.3714 35.0585 18.2249C34.2507 18.0746 33.2867 17.6365 32.256 16.9494L32.2559 16.9495L32.2466 16.9429C30.8772 15.9844 29.9828 15.112 29.4649 13.7249C28.9627 12.3796 28.8333 10.5939 28.8333 7.86666V2.25429C28.8063 2.36034 28.7803 2.47159 28.7557 2.58739C28.5964 3.33591 28.5 4.23434 28.5 5.06667C28.5 5.82766 28.4922 6.43944 28.4428 6.88438C28.4181 7.10629 28.3803 7.3165 28.3142 7.49495C28.2497 7.6692 28.1338 7.87909 27.9095 8.00375C27.672 8.13567 27.4252 8.11155 27.2352 8.05056C27.0516 7.99165 26.8706 7.88382 26.6989 7.7625C26.355 7.51948 25.9242 7.13088 25.3983 6.63791C23.941 5.37348 21.7901 4.37157 19.5312 3.81902C17.2661 3.26495 14.9598 3.17912 13.204 3.68076L13.1916 3.6843L13.1791 3.68719C12.3996 3.86707 11.1927 4.46092 9.86876 5.30495C8.55845 6.14027 7.18382 7.18811 6.076 8.23077L6.07612 8.23089L6.06632 8.23964C4.20999 9.89708 3.17864 11.0714 2.59066 12.4021C2.00224 13.7338 1.83332 15.2771 1.83332 17.7333C1.83332 20.0573 2.00166 21.5805 2.41815 22.6911C2.82245 23.7693 3.47356 24.4913 4.53828 25.1802L4.5383 25.1802L4.544 25.184C5.23715 25.6461 5.8027 26.038 6.20462 26.433C6.62225 26.8434 6.89619 27.2884 6.96323 27.8582C7.02695 28.3999 6.89499 28.9929 6.65065 29.6852C6.40449 30.3826 6.01964 31.2451 5.52183 32.3402L5.52189 32.3403L5.51852 32.3474C4.33929 34.8369 3.01818 39.0608 2.49102 41.6943L1.66717 46.1667H15.2H28.8333V42.6667C28.8333 41.5665 28.7032 40.618 28.5047 39.9614C28.4045 39.6299 28.2953 39.4014 28.1975 39.2668C28.1938 39.2617 28.1903 39.2569 28.1868 39.2522C28.1469 39.3516 28.1067 39.4996 28.0786 39.7021C28.0051 40.2313 28.0313 41.0044 28.2222 41.8952L28.2253 41.9095L28.2275 41.924C28.3685 42.8406 28.3384 43.6373 28.1709 44.2714C28.0062 44.8948 27.6902 45.4214 27.2085 45.6876C26.6921 45.973 26.1119 45.8917 25.6097 45.5413C25.1283 45.2054 24.699 44.6176 24.347 43.812C24.2027 43.5243 24.0905 43.3274 24 43.2004C23.9104 43.3261 23.7995 43.5202 23.6574 43.8032C23.4889 44.2231 23.1107 44.5314 22.6823 44.7614C22.2328 45.0027 21.6525 45.1984 20.9791 45.3539C19.6293 45.6654 17.8217 45.8333 15.7333 45.8333C14.234 45.8333 13.0585 45.8168 12.15 45.7486C11.2535 45.6813 10.5566 45.5605 10.0503 45.3174C9.49993 45.0533 9.17897 44.6461 9.05737 44.0902C8.94841 43.5921 9.00556 42.9943 9.10411 42.3352C9.24991 41.0381 9.70081 40.0615 10.7253 39.327C11.7048 38.6247 13.1679 38.1765 15.2383 37.7758L15.2383 37.7757L15.2439 37.7747C18.1773 37.2414 22.0836 36.7 24 36.7H25.2153L24.182 36.1834C23.0907 35.6712 22.2414 35.1091 21.697 34.4554C21.1341 33.7794 20.9043 33.0113 21.058 32.1611C21.2059 31.3422 21.7003 30.4984 22.4653 29.6127C23.2349 28.7218 24.3129 27.7492 25.6913 26.6733C26.9253 25.6989 28.0617 24.5293 28.8855 23.4472C29.2975 22.9058 29.6245 22.3954 29.8461 21.9501C30.0735 21.4933 30.1666 21.1514 30.1666 20.9333C30.1666 19.5177 30.7429 18.4167 31.7495 18.2102C32.764 18.0021 33.7008 18.8035 34.1993 20.0854L34.2065 20.104L34.2122 20.123C34.3066 20.4376 34.3944 20.6198 34.4696 20.7193C34.529 20.7978 34.5595 20.8004 34.5769 20.8019L34.5786 20.8021C34.6273 20.8065 34.7448 20.7938 34.9751 20.6805C35.1983 20.5707 35.4784 20.3912 35.8364 20.131C36.4193 19.6947 37.3626 19.2101 38.3873 18.7734C39.4225 18.3321 40.5784 17.9238 41.6045 17.6502L41.6146 17.6475L41.6249 17.6452C42.5392 17.4421 43.1555 17.2872 43.5998 17.0578C44.0051 16.8486 44.2585 16.5811 44.4305 16.1114C44.616 15.6048 44.7084 14.8568 44.7208 13.6843C44.7332 12.5207 44.6674 10.9946 44.5672 8.95789L44.5672 8.9575ZM28.096 39.1603C28.096 39.1604 28.097 39.161 28.099 39.1617C28.097 39.1606 28.096 39.1603 28.096 39.1603ZM28.252 39.1289C28.2542 39.1268 28.2553 39.1255 28.2553 39.1254C28.2553 39.1252 28.2541 39.1263 28.252 39.1289ZM23.8902 43.0723C23.8902 43.0724 23.8913 43.0732 23.8936 43.0747C23.8913 43.0729 23.8902 43.0722 23.8902 43.0723ZM24.1063 43.0747C24.1086 43.0733 24.1098 43.0724 24.1098 43.0723C24.1098 43.0722 24.1086 43.0729 24.1063 43.0747ZM19.1219 14.7031L19.1336 14.7044L19.1452 14.7062C20.6086 14.939 21.7548 15.1337 22.6415 15.3544C23.5227 15.5736 24.2062 15.8314 24.7075 16.2224C25.2325 16.6319 25.5172 17.1545 25.6666 17.8072C25.81 18.4344 25.8333 19.2048 25.8333 20.1333C25.8333 23.4318 25.2995 25.8775 23.9887 27.4978C22.6558 29.1454 20.6113 29.8333 17.8666 29.8333C16.5719 29.8333 15.4247 29.6977 14.6351 29.4824C14.2524 29.378 13.8968 29.2402 13.6568 29.0508C13.5361 28.9554 13.3942 28.8077 13.337 28.5959C13.279 28.3807 13.3288 28.1794 13.4299 28.0199C13.4881 27.878 13.5296 27.5484 13.456 27.0772C13.382 26.6035 13.2034 26.0695 12.9103 25.5999C12.4471 24.8725 12.1656 24.7131 11.9644 24.6987C11.8543 24.6909 11.6979 24.719 11.4621 24.8404C11.2254 24.9622 10.9412 25.161 10.5859 25.4515C9.93485 25.9993 9.30772 26.3801 8.71431 26.475C8.40501 26.5244 8.09852 26.497 7.81165 26.3699C7.52704 26.2437 7.29584 26.0344 7.10978 25.774C6.74848 25.2681 6.52166 24.5188 6.37867 23.5862C6.23366 22.6403 6.16665 21.4454 6.16665 20C6.16665 17.3441 6.74283 15.0684 7.66646 13.6739C8.12812 12.9769 8.71207 12.4486 9.4048 12.2611C10.1242 12.0664 10.854 12.2673 11.5178 12.814L11.5201 12.8159C11.6516 12.9255 11.9503 13.0849 12.4379 13.2701C12.9095 13.4492 13.5119 13.6356 14.2086 13.8159C15.6015 14.1765 17.3447 14.5056 19.1219 14.7031ZM11.8157 28.1316L11.812 28.1449L11.8077 28.1581C11.6076 28.7582 11.5187 29.1509 11.5249 29.4198C11.5277 29.5438 11.5509 29.6199 11.5779 29.6707C11.6037 29.7192 11.6475 29.7722 11.7358 29.8287C11.9343 29.9554 12.3032 30.0673 12.9681 30.1473C13.6167 30.2254 14.4771 30.2667 15.6074 30.3C16.706 30.3001 17.5587 30.3167 18.1785 30.3573C18.4886 30.3776 18.7509 30.4046 18.9614 30.4409C19.1547 30.4741 19.3655 30.5245 19.5274 30.6234C19.6117 30.6749 19.7357 30.7715 19.8026 30.9375C19.878 31.1246 19.8438 31.3046 19.7786 31.4345C19.7206 31.55 19.6363 31.6336 19.5713 31.6889C19.5019 31.748 19.423 31.8009 19.3432 31.8484C19.0363 32.0311 18.5378 32.2364 17.9095 32.4679C17.1149 32.7741 16.4146 33.2634 15.9186 33.8045C15.4124 34.3567 15.1666 34.9079 15.1666 35.3333C15.1666 36.1271 14.759 36.7763 14.0851 37.2052C13.4283 37.6231 12.5244 37.8333 11.4667 37.8333C10.3238 37.8333 9.65442 38.0564 9.19168 38.532C8.70388 39.0334 8.3565 39.9015 8.09259 41.419L8.0906 41.4305L8.08808 41.4418C7.81052 42.6908 7.35394 43.7603 6.7856 44.5303C6.22713 45.2869 5.49674 45.8333 4.66665 45.8333C3.86455 45.8333 3.14465 45.6149 2.75932 44.9983C2.3916 44.41 2.44376 43.6331 2.71741 42.8001C2.99048 41.5776 3.65375 39.0589 4.18427 37.2016C4.39888 36.3823 4.90142 35.2124 5.52883 33.943C6.16245 32.6611 6.93954 31.2457 7.71979 29.9285C8.49934 28.6125 9.28729 27.3856 9.94349 26.4831C10.2704 26.0335 10.5729 25.6527 10.8313 25.3796C10.9595 25.244 11.0886 25.1223 11.2139 25.0308C11.3174 24.9551 11.5049 24.8333 11.7333 24.8333C12.0095 24.8333 12.1824 25.0131 12.2583 25.1681C12.3209 25.2963 12.3349 25.4308 12.339 25.5207C12.3479 25.7131 12.3188 25.9535 12.276 26.2016C12.1883 26.7106 12.0159 27.3973 11.8157 28.1316ZM11.3381 25.5445C11.3381 25.5446 11.3382 25.5458 11.3387 25.5482C11.3384 25.5456 11.3382 25.5444 11.3381 25.5445ZM11.8391 25.8147C11.8431 25.8129 11.8452 25.8117 11.8452 25.8116C11.8453 25.8114 11.8432 25.8123 11.8391 25.8147ZM18.9283 30.9227C18.9283 30.9227 18.9274 30.9235 18.9258 30.9251C18.9276 30.9235 18.9284 30.9227 18.9283 30.9227Z" fill="#2F88FF" stroke="#525252"/>
<path d="M34.6666 4.66666C33.4666 6.13333 33.7333 6.26666 35.8666 5.73333C37.4666 5.33333 38.6666 5.6 38.6666 6.53333C38.6666 7.33333 38.1333 8 37.3333 8C36.6666 8 35.9999 9.06666 35.9999 10.2667C35.9999 12.2667 36.2666 12.1333 37.9999 9.86666C39.0666 8.53333 39.9999 6.66666 39.9999 5.86666C39.9999 3.46666 36.3999 2.66666 34.6666 4.66666Z" fill="#FF0000"/>
<path d="M16.6666 24C16.2666 24.6667 16.7999 25.3333 17.9999 25.3333C19.1999 25.3333 19.7333 24.6667 19.3333 24C18.9333 23.2 18.2666 22.6667 17.9999 22.6667C17.7333 22.6667 17.0666 23.2 16.6666 24Z" fill="#FAD201"/>
</g>
<defs>
<clipPath id="clip0_321_11">
<rect width="46.6667" height="46.6667" fill="white"/>
</clipPath>
</defs>
</svg>
