<?xml version="1.0" standalone="no"?>
<!DOCTYPE svg PUBLIC "-//W3C//DTD SVG 20010904//EN"
 "http://www.w3.org/TR/2001/REC-SVG-20010904/DTD/svg10.dtd">
<svg version="1.0" xmlns="http://www.w3.org/2000/svg"
 width="35.000000pt" height="35.000000pt" viewBox="0 0 35.000000 35.000000"
 preserveAspectRatio="xMidYMid meet">

<g transform="translate(0.000000,35.000000) scale(0.100000,-0.100000)"
fill="#000000" stroke="none">
<path d="M170 335 c0 -8 -14 -17 -35 -21 -40 -7 -40 -8 -19 -80 22 -76 17 -84
-56 -84 l-61 0 3 -72 3 -73 173 -3 172 -3 0 176 0 175 -90 0 c-72 0 -90 -3
-90 -15z m165 -160 c0 -158 0 -160 -22 -163 -28 -4 -28 -2 -5 40 15 26 17 45
12 93 -5 43 -7 49 -9 23 -1 -27 -5 -36 -15 -32 -7 3 -11 14 -9 28 5 26 -18 49
-41 40 -9 -3 -16 -17 -16 -30 0 -13 -4 -24 -10 -24 -16 0 -12 119 4 136 28 27
73 14 89 -26 4 -12 6 -11 6 3 1 27 -24 47 -59 47 -50 0 -68 -26 -73 -100 -2
-52 -4 -45 -5 33 l-2 98 78 -3 77 -3 0 -160z m-165 122 c0 -7 -7 -22 -15 -33
-11 -16 -12 -29 -5 -55 17 -59 9 -66 -10 -9 -29 87 -26 101 23 109 4 0 7 -5 7
-12z m-3 -79 c-3 -7 -5 -2 -5 12 0 14 2 19 5 13 2 -7 2 -19 0 -25z m106 -43
c1 -5 -6 -11 -15 -13 -11 -2 -18 3 -18 13 0 17 30 18 33 0z m-133 -35 c0 -6
32 -10 75 -10 80 0 103 -16 33 -23 -41 -3 -41 -4 10 -5 68 -3 68 -21 0 -24
-48 -1 -49 -2 -13 -5 59 -6 68 -23 12 -23 -26 0 -47 -4 -47 -10 0 -5 14 -10
30 -10 17 0 30 -4 30 -10 0 -14 -133 -13 -148 2 -13 13 -17 110 -5 121 10 10
23 8 23 -3z m-88 -47 l2 -48 3 48 c3 33 8 47 19 47 11 0 14 -15 14 -66 l0 -65
-37 3 c-38 3 -38 3 -41 52 -4 57 2 76 23 76 11 0 15 -12 17 -47z"/>
</g>
</svg>
