<svg width="146" height="146" viewBox="0 0 146 146" fill="none" xmlns="http://www.w3.org/2000/svg">
<g clip-path="url(#clip0_322_28)">
<path d="M99.3333 8.66664C78.5333 19.0666 76.1333 20.6666 78.4 22.9333C79.7333 24.2666 80.6667 24.2666 82.8 22.9333C88.4 19.3333 110.133 8.26664 113.067 7.33331L116 6.53331V53.3333V100.133L111.733 101.6C109.333 102.4 100.267 106.667 91.6 110.933C82.9333 115.2 75.6 118.667 75.2 118.667C74.9333 118.667 74.6667 97.6 74.6667 71.8666V25.2L69.7333 22.9333C63.2 20 27.0667 20 16.6667 22.9333L10 24.8L9.6 79.3333C9.46667 109.333 9.73333 134.267 10.2667 134.8C10.9333 135.333 15.6 134.933 20.6667 133.733C25.8667 132.667 36.9333 131.6 45.3333 131.467C62.6667 131.333 70.6667 133.2 70.6667 137.467C70.6667 139.867 69.3333 140 39.6 140C17.2 140 8.13333 139.6 6.93333 138.4C5.73333 137.2 5.33333 124.133 5.33333 88C5.33333 61.2 4.8 38.5333 4.13333 37.4666C0.533333 31.8666 0 38.5333 0 87.4666V137.6L3.86667 141.467L7.73333 145.333H72.6667H137.6L141.467 141.467L145.333 137.6V87.4666C145.333 38.5333 144.8 31.8666 141.2 37.4666C140.533 38.5333 140 61.2 140 88C140 124.133 139.6 137.2 138.4 138.4C137.2 139.6 128.133 140 105.733 140C75.7333 140 74.6667 139.867 74.6667 137.333C74.6667 133.333 83.6 131.333 101.333 131.467C110.267 131.6 120.267 132.533 125.333 133.733C130.133 134.933 134.4 135.333 135.067 134.8C135.6 134.267 135.867 109.333 135.733 79.3333L135.333 24.8L131.733 23.8666C129.2 23.2 127.6 23.4666 126.533 24.8C125.2 26.4 125.467 26.9333 127.733 27.6L130.667 28.2666V78.8C130.667 106.667 130.133 129.333 129.467 129.333C128.933 129.333 125.067 128.667 121.2 128C110.133 125.867 87.0667 126.133 79.3333 128.533C73.4667 130.4 72.1333 130.4 66.6667 128.533C59.7333 126.133 38.8 125.867 26 128C21.6 128.667 17.2 129.333 16.4 129.333C15.0667 129.333 14.6667 118.4 14.6667 78.8V28.2666L24.4 26.5333C37.3333 24.2666 59.3333 24.2666 65.7333 26.4L70.6667 28.2666V76.8C70.6667 110.667 71.0667 125.333 72.1333 125.333C72.9333 125.333 81.2 121.6 90.4 116.933C99.7333 112.4 110.533 107.333 114.4 105.733L121.333 102.933L121.067 51.7333C120.667 7.59997 120.4 0.666639 118.667 0.399972C117.6 0.133305 108.933 3.86664 99.3333 8.66664Z" fill="#525252"/>
<path d="M93.7334 32C83.3334 36.8 81.0667 38.8 83.8667 40.5333C85.4667 41.6 109.467 30.2666 108.933 28.6667C108 26 104.533 26.8 93.7334 32Z" fill="#525252"/>
<path d="M94.9333 45.8667C83.6 51.0667 81.4666 52.6667 83.4666 54.6667C85.2 56.4 108.8 45.4667 108.4 43.3333C107.867 40.8 104.533 41.3333 94.9333 45.8667Z" fill="#525252"/>
<path d="M29.6 45.3333C24.2667 46.5333 23.0667 47.6 24.8 49.3333C25.7334 50.2667 29.3334 50.2667 35.8667 49.3333C41.0667 48.6667 48.6667 48.4 52.6667 48.8C58.8 49.6 60 49.3333 60 47.6C60 46.5333 59.0667 45.2 57.8667 44.8C54.9334 43.7333 34.9334 44 29.6 45.3333Z" fill="#525252"/>
<path d="M94.1333 60.6667C81.8667 66 82.1333 65.8667 83.0667 68.5333C83.7333 70.2667 85.7333 69.8667 94.9333 65.7333C107.467 60.1333 109.6 58.8 108.533 57.2C107.333 55.3333 105.333 55.7333 94.1333 60.6667Z" fill="#525252"/>
<path d="M28.2667 60.1333C22.9334 61.7333 23.3334 64.8 28.8001 64.2666C30.9334 64.1333 38.8001 63.8666 46.4001 63.7333C55.8667 63.4666 60.0001 62.9333 60.0001 61.8666C60.0001 60.9333 59.0667 59.8666 57.8667 59.4666C54.6667 58.2666 33.2001 58.8 28.2667 60.1333Z" fill="#525252"/>
<path d="M93.4666 75.4666C81.8666 80.8 82.1333 80.6666 83.0666 83.2C83.7333 84.8 85.8666 84.2666 94.9333 80.2666C108.4 74.2666 109.6 73.4666 108.667 71.8666C107.333 69.8666 103.733 70.6666 93.4666 75.4666Z" fill="#525252"/>
<path d="M28.6666 74.5333C23.7333 75.6 23.0666 79.4666 28 78.9333C29.8666 78.6666 37.7333 78.4 45.7333 78.2666C57.6 78 60 77.6 59.7333 76C59.3333 74.4 56.6666 74 46 73.8666C38.6666 73.7333 30.9333 74 28.6666 74.5333Z" fill="#525252"/>
<path d="M93.0667 90.2666C83.7334 94.5333 79.6 98.6666 84.5334 98.6666C88.1334 98.6666 109.467 88 108.667 86.6666C107.333 84.4 103.867 85.2 93.0667 90.2666Z" fill="#525252"/>
<path d="M34.1333 88.1333C25.6 89.3333 22.5333 91.0667 24.8 93.3333C25.7333 94.2667 28.8 94.1333 34.1333 93.2C38.4 92.4 46 92 51.0666 92.4C58.1333 93.0667 60 92.8 60 91.3333C60 90.2667 59.6 89.2 59.0666 88.9333C56.6666 87.4667 41.3333 86.9333 34.1333 88.1333Z" fill="#525252"/>
<path d="M33.3334 102.8C25.4667 104.133 22.6667 105.867 24.8 107.867C25.4667 108.667 28.8 108.533 33.3334 107.733C37.3334 106.933 45.0667 106.667 50.4 107.067C58 107.6 60.0001 107.467 60.0001 106C60.0001 104.933 59.4667 103.867 58.9334 103.467C56.5334 102 40.2667 101.6 33.3334 102.8Z" fill="#525252"/>
</g>
<rect x="0.5" y="0.5" width="144.333" height="144.333" stroke="#525252"/>
<defs>
<clipPath id="clip0_322_28">
<rect width="145.333" height="145.333" fill="white"/>
</clipPath>
</defs>
</svg>
