<?xml version="1.0" standalone="no"?>
<!DOCTYPE svg PUBLIC "-//W3C//DTD SVG 20010904//EN"
 "http://www.w3.org/TR/2001/REC-SVG-20010904/DTD/svg10.dtd">
<svg version="1.0" xmlns="http://www.w3.org/2000/svg"
 width="35.000000pt" height="35.000000pt" viewBox="0 0 35.000000 35.000000"
 preserveAspectRatio="xMidYMid meet">

<g transform="translate(0.000000,35.000000) scale(0.100000,-0.100000)"
fill="#000000" stroke="none">
<path d="M133 340 c-24 -10 -53 -58 -53 -88 0 -11 9 -31 20 -45 20 -25 20 -26
1 -32 -27 -8 -89 -79 -97 -111 -10 -39 7 -59 55 -62 32 -2 41 0 41 12 0 12
-10 16 -35 16 -41 0 -46 18 -16 64 33 49 69 67 136 65 45 -1 59 1 57 11 -2 8
4 28 14 45 42 79 -37 159 -123 125z m91 -42 c22 -31 20 -64 -6 -88 -61 -57
-147 31 -88 90 27 27 75 26 94 -2z"/>
<path d="M244 125 c-10 -8 -40 -15 -65 -15 -33 0 -51 -6 -64 -20 -17 -19 -17
-21 0 -40 22 -24 75 -27 75 -5 0 9 -9 15 -25 15 -14 0 -25 5 -25 10 0 6 24 10
54 10 40 0 55 4 60 16 4 10 15 14 33 12 24 -3 28 -8 31 -40 3 -37 2 -38 -31
-38 -23 0 -37 6 -41 17 -5 11 -10 13 -17 6 -21 -21 8 -53 49 -53 51 0 63 10
69 57 4 33 1 45 -16 62 -25 25 -59 27 -87 6z"/>
<path d="M282 69 c2 -6 8 -10 13 -10 5 0 11 4 13 10 2 6 -4 11 -13 11 -9 0
-15 -5 -13 -11z"/>
</g>
</svg>
