<svg width="62" height="88" viewBox="0 0 62 88" fill="none" xmlns="http://www.w3.org/2000/svg">
<path d="M30.5 55.25H3.18665C1.65773 55.25 0.893274 55.25 0.604031 54.753C0.314788 54.256 0.692437 53.5913 1.44774 52.262L30.0653 1.89512C30.4402 1.23516 30.6277 0.905175 30.8139 0.95436C31 1.00354 31 1.38307 31 2.14213V32.25C31 32.4857 31 32.6035 31.0732 32.6768C31.1464 32.75 31.2643 32.75 31.5 32.75H58.8133C60.3423 32.75 61.1067 32.75 61.396 33.247C61.6852 33.744 61.3076 34.4087 60.5523 35.738L31.9347 86.1049C31.5597 86.7648 31.3723 87.0948 31.1861 87.0456C31 86.9964 31 86.6169 31 85.8579V55.75C31 55.5143 31 55.3964 30.9268 55.3232C30.8536 55.25 30.7357 55.25 30.5 55.25Z" fill="#FAD201"/>
</svg>
