<svg width="62" height="87" viewBox="0 0 62 87" fill="none" xmlns="http://www.w3.org/2000/svg">
<path d="M30.75 55H3.43665C1.90773 55 1.14327 55 0.854031 54.503C0.564788 54.006 0.942437 53.3413 1.69774 52.012L30.3153 1.64512C30.6902 0.985157 30.8777 0.655175 31.0639 0.70436C31.25 0.753545 31.25 1.13307 31.25 1.89213V32C31.25 32.2357 31.25 32.3535 31.3232 32.4268C31.3964 32.5 31.5143 32.5 31.75 32.5H59.0633C60.5923 32.5 61.3567 32.5 61.646 32.997C61.9352 33.494 61.5576 34.1587 60.8023 35.488L32.1847 85.8549C31.8097 86.5148 31.6223 86.8448 31.4361 86.7956C31.25 86.7464 31.25 86.3669 31.25 85.6079V55.5C31.25 55.2643 31.25 55.1464 31.1768 55.0732C31.1036 55 30.9857 55 30.75 55Z" fill="#FAD201" fill-opacity="0.01"/>
</svg>
