<?xml version="1.0" standalone="no"?>
<!DOCTYPE svg PUBLIC "-//W3C//DTD SVG 20010904//EN"
 "http://www.w3.org/TR/2001/REC-SVG-20010904/DTD/svg10.dtd">
<svg version="1.0" xmlns="http://www.w3.org/2000/svg"
 width="48.000000pt" height="48.000000pt" viewBox="0 0 48.000000 48.000000"
 preserveAspectRatio="xMidYMid meet">

<g transform="translate(0.000000,48.000000) scale(0.100000,-0.100000)"
fill="#000000" stroke="none">
<path d="M74 413 c-49 -54 -51 -73 -15 -147 55 -113 228 -249 294 -232 23 6
97 69 97 83 0 5 -25 24 -56 43 l-57 34 -18 -23 c-26 -32 -61 -22 -115 33 -55
54 -65 89 -33 115 l23 18 -34 57 c-19 31 -38 56 -43 56 -4 0 -24 -17 -43 -37z"/>
<path d="M257 443 c-13 -12 -7 -23 13 -23 62 0 133 -67 146 -137 7 -35 21 -43
30 -18 9 21 -14 81 -44 117 -38 45 -125 82 -145 61z"/>
<path d="M252 358 c3 -7 13 -15 24 -16 26 -5 62 -40 66 -65 5 -32 28 -33 28
-2 0 36 -59 95 -95 95 -17 0 -25 -5 -23 -12z"/>
</g>
</svg>
