<?xml version="1.0" encoding="UTF-8"?>
<!DOCTYPE svg PUBLIC "-//W3C//DTD SVG 1.1//EN" "http://www.w3.org/Graphics/SVG/1.1/DTD/svg11.dtd">
<svg xmlns="http://www.w3.org/2000/svg" version="1.1" width="45px" height="45px" style="shape-rendering:geometricPrecision; text-rendering:geometricPrecision; image-rendering:optimizeQuality; fill-rule:evenodd; clip-rule:evenodd" xmlns:xlink="http://www.w3.org/1999/xlink">
<g><path style="opacity:0.55" fill="#000000" d="M 34.5,-0.5 C 36.5,-0.5 38.5,-0.5 40.5,-0.5C 41.1094,2.99669 39.9427,5.66336 37,7.5C 35.655,5.55745 36.155,3.72412 38.5,2C 37.1667,2 35.8333,2 34.5,2C 33.4019,1.23029 33.4019,0.396953 34.5,-0.5 Z"/></g>
<g><path style="opacity:0.819" fill="#000000" d="M 23.5,44.5 C 21.8333,44.5 20.1667,44.5 18.5,44.5C 18.517,41.5749 18.1837,38.5749 17.5,35.5C 15.2573,34.5258 12.924,34.1924 10.5,34.5C 9.74659,38.0994 8.41326,41.4327 6.5,44.5C 6.16667,44.5 5.83333,44.5 5.5,44.5C 4.71025,41.1719 5.37692,38.0052 7.5,35C 5.21095,28.7221 3.87762,22.2221 3.5,15.5C 4.83333,15.5 6.16667,15.5 7.5,15.5C 7.80404,18.5219 8.30404,21.5219 9,24.5C 9.27216,16.2272 13.4388,12.0606 21.5,12C 17.9154,9.47187 17.582,6.47187 20.5,3C 22.1667,2.33333 23.8333,2.33333 25.5,3C 27.0373,5.83631 28.3706,8.83631 29.5,12C 29.015,15.411 28.3483,18.7444 27.5,22C 30.146,22.4974 32.8127,22.6641 35.5,22.5C 35.5,23.5 35.5,24.5 35.5,25.5C 32.8127,25.3359 30.146,25.5026 27.5,26C 28.5762,27.7261 28.7429,29.5594 28,31.5C 26.1927,35.7561 24.6927,40.0894 23.5,44.5 Z M 23.5,11.5 C 24.5735,12.2506 24.7401,13.2506 24,14.5C 22.2716,13.6477 22.105,12.6477 23.5,11.5 Z"/></g>
<g><path style="opacity:0.466" fill="#000000" d="M 35.5,8.5 C 38.5476,8.49403 39.0476,9.49403 37,11.5C 35.9614,10.7562 35.4614,9.75618 35.5,8.5 Z"/></g>
</svg>
