<?xml version="1.0" standalone="no"?>
<!DOCTYPE svg PUBLIC "-//W3C//DTD SVG 20010904//EN"
 "http://www.w3.org/TR/2001/REC-SVG-20010904/DTD/svg10.dtd">
<svg version="1.0" xmlns="http://www.w3.org/2000/svg"
 width="35.000000pt" height="35.000000pt" viewBox="0 0 35.000000 35.000000"
 preserveAspectRatio="xMidYMid meet">

<g transform="translate(0.000000,35.000000) scale(0.100000,-0.100000)"
fill="#000000" stroke="none">
<path d="M49 314 l-34 -35 35 3 c30 3 35 7 38 31 3 27 4 27 78 27 l74 0 0 -94
0 -95 -27 -3 c-23 -2 -29 -9 -33 -38 l-5 -35 -72 -3 -73 -3 -2 103 -2 103 -3
-99 c-5 -125 3 -136 92 -136 54 0 63 -3 68 -20 4 -17 14 -20 64 -20 69 0 84
11 82 60 l-2 35 -6 -40 -6 -40 -62 -3 -63 -3 0 66 0 65 60 0 c53 0 62 -3 70
-22 10 -23 10 -23 7 2 -1 17 -10 26 -27 30 -24 6 -25 10 -28 89 -2 54 -8 88
-17 97 -9 10 -39 14 -92 14 -78 0 -80 -1 -114 -36z m28 -9 c-4 -8 -14 -15 -23
-15 -16 0 -16 2 1 20 20 22 31 20 22 -5z m180 -118 c-2 -23 -3 -2 -3 48 0 50
1 68 3 42 2 -26 2 -67 0 -90z m-110 -134 c-20 -2 -52 -2 -70 0 -17 2 0 4 38 4
39 0 53 -2 32 -4z"/>
<path d="M112 268 l3 -53 41 -3 c50 -4 66 13 62 65 l-3 38 -53 3 -53 3 3 -53z
m88 0 c0 -32 -3 -39 -10 -28 -5 8 -10 23 -10 33 0 19 -35 21 -35 2 0 -6 -6
-19 -12 -30 -11 -18 -12 -15 -13 23 l0 42 40 0 40 0 0 -42z m-20 -28 c0 -5 -9
-10 -21 -10 -11 0 -17 5 -14 10 3 6 13 10 21 10 8 0 14 -4 14 -10z"/>
<path d="M98 183 c23 -2 59 -2 80 0 20 2 1 4 -43 4 -44 0 -61 -2 -37 -4z"/>
<path d="M83 153 c15 -2 37 -2 50 0 12 2 0 4 -28 4 -27 0 -38 -2 -22 -4z"/>
<path d="M68 123 c6 -2 18 -2 25 0 6 3 1 5 -13 5 -14 0 -19 -2 -12 -5z"/>
<path d="M83 103 c15 -2 37 -2 50 0 12 2 0 4 -28 4 -27 0 -38 -2 -22 -4z"/>
<path d="M260 95 c-7 -9 -21 -13 -30 -10 -26 8 -32 -20 -9 -41 19 -17 21 -17
51 13 17 17 27 36 24 42 -10 15 -21 14 -36 -4z m10 -30 c-18 -19 -26 -22 -37
-14 -19 16 -16 28 5 22 10 -2 24 3 32 12 7 8 15 13 18 10 3 -3 -5 -16 -18 -30z"/>
</g>
</svg>
