<svg width="142" height="142" viewBox="0 0 142 142" fill="none" xmlns="http://www.w3.org/2000/svg">
<path d="M55.3 14.2998C59.1 11.0998 63.7 8.6998 68.7 8.2998C68.7 15.2998 68.7 22.1998 68.7 29.1998C60.6 29.1998 52.4 29.1998 44.3 29.1998C47 23.5998 50.6 18.2998 55.3 14.2998ZM72.5 8.2998C77.3 8.7998 81.7 11.1998 85.4 14.1998C90.1 18.2998 93.7 23.4998 96.5 29.0998C88.5 29.0998 80.6 29.0998 72.6 29.0998C72.5 22.1998 72.5 15.2998 72.5 8.2998ZM49.8 11.8998C51.6 11.1998 53.5 10.5998 55.4 9.9998C48.7 14.7998 44 21.7998 40.6 29.0998C35.6 29.0998 30.7 29.0998 25.7 29.0998C27.3 27.2998 28.9 25.3998 30.7 23.7998C36.2 18.5998 42.8 14.6998 49.8 11.8998ZM85.3 9.9998C93.9 12.4998 102.1 16.6998 108.8 22.6998C110 23.8998 111.3 24.8998 112.5 26.1998C113.3 27.1998 114.3 27.9998 115.1 29.0998C110.1 29.0998 105.2 29.0998 100.2 29.0998C98 24.3998 95.3 19.8998 91.9 15.9998C89.9 13.7998 87.8 11.6998 85.3 9.9998ZM22.8 32.9998C28.2 32.9998 33.6 32.9998 39 32.9998C36.8 38.5998 35.3 44.3998 34.3 50.3998C27.7 50.3998 21.1 50.3998 14.5 50.3998C16.3 44.1998 19.1 38.2998 22.8 32.9998ZM42.2 33.7998C42.4 33.4998 42.4 32.8998 42.9 32.9998C51.5 32.9998 60.1 32.9998 68.7 32.9998C68.7 38.7998 68.7 44.5998 68.7 50.3998C58.3 50.3998 47.9 50.3998 37.6 50.3998C38.5 44.6998 40.1 39.0998 42.2 33.7998ZM72.5 32.9998C81.1 32.9998 89.7 32.8998 98.2 32.9998C100.4 38.5998 102.2 44.3998 103.1 50.2998C92.9 50.2998 82.7 50.2998 72.5 50.2998C72.5 44.4998 72.5 38.7998 72.5 32.9998ZM101.8 32.9998C107.2 32.9998 112.6 32.9998 118 32.9998C121.7 38.2998 124.5 44.1998 126.3 50.3998C119.7 50.3998 113.1 50.3998 106.5 50.3998C105.5 44.3998 104 38.5998 101.8 32.9998ZM13.3 77.0998C12 69.4998 12 61.6998 13.6 54.0998C20.3 54.0998 27.1 54.0998 33.8 54.0998C32.9 61.6998 32.8 69.3998 33.7 77.0998C26.8 77.0998 20 77.0998 13.3 77.0998ZM36.9 77.0998C36.1 69.4998 36.1 61.7998 37 54.0998C47.6 54.0998 58.1 54.0998 68.7 54.0998C68.7 61.7998 68.7 69.3998 68.7 77.0998C58.1 77.0998 47.5 77.0998 36.9 77.0998ZM72.5 54.1998C82.9 54.1998 93.3 54.1998 103.7 54.1998C104.6 61.7998 104.7 69.4998 103.9 77.1998C93.5 77.1998 83 77.1998 72.6 77.1998C72.5 69.4998 72.5 61.7998 72.5 54.1998ZM107 54.1998C113.7 54.1998 120.5 54.1998 127.2 54.1998C128.7 61.7998 128.8 69.5998 127.4 77.1998C120.6 77.1998 113.9 77.1998 107.1 77.1998C108 69.4998 108 61.7998 107 54.1998ZM14.1 80.9998C20.7 80.9998 27.4 80.9998 34 80.9998C34.9 86.8998 36.3 92.6998 38.4 98.3998C32.9 98.3998 27.4 98.3998 21.9 98.3998C18.4 92.9998 15.8 87.0998 14.1 80.9998ZM37.4 80.9998C47.8 80.9998 58.3 80.9998 68.7 80.9998C68.7 86.7998 68.7 92.5998 68.7 98.3998C59.8 98.3998 50.9 98.3998 42 98.3998C39.8 92.6998 38.2 86.8998 37.4 80.9998ZM72.5 80.9998C82.8 80.9998 93 80.9998 103.3 80.9998C102.5 86.8998 100.8 92.6998 98.7 98.2998C90 98.3998 81.2 98.2998 72.5 98.2998C72.5 92.4998 72.5 86.6998 72.5 80.9998ZM102.3 98.2998C104.4 92.6998 105.8 86.8998 106.7 80.8998C113.3 80.8998 120 80.8998 126.6 80.8998C124.9 86.9998 122.3 92.9998 118.8 98.2998C113.3 98.2998 107.8 98.2998 102.3 98.2998ZM24.7 102.1C29.8 102.1 34.9 102.1 40.1 102.1C42.9 108.4 46.6 114.4 51.6 119.2C52.8 120.4 54.1 121.5 55.5 122.4C49.4 120.6 43.5 118 38.2 114.5C33 111.2 28.5 106.9 24.7 102.1ZM43.7 102.1C52 102.1 60.4 102.1 68.7 102.1C68.7 109.5 68.7 116.9 68.7 124.2C64.7 124 60.9 122.2 57.6 120C51.4 115.6 46.9 109.1 43.7 102.1ZM72.5 102.1C80.7 102.1 88.9 102.1 97 102.1C94.6 107.1 91.7 111.9 87.8 115.9C84.9 118.9 81.5 121.5 77.5 123C75.9 123.7 74.2 124.1 72.4 124.2C72.5 116.9 72.5 109.5 72.5 102.1ZM100.7 102.2C105.8 102.1 110.9 102.2 116.1 102.2C112.8 106.3 109 110 104.8 113.2C100.3 116.5 95.3 119.2 90 121.1C88.5 121.7 86.9 122.1 85.4 122.6C88.3 120.6 90.7 118.1 93 115.4C96.1 111.3 98.7 106.8 100.7 102.2Z" fill="white"/>
<path d="M65.3001 5.09979C73.4001 4.39979 81.6001 5.39979 89.3001 7.89979C103.8 12.4998 116.4 22.7998 123.8 36.0998C129.7 46.3998 132.4 58.4998 131.6 70.2998C131 80.1998 127.9 89.8998 122.7 98.2998C117.8 106.3 111 113.2 103.1 118.2C95.3001 123.1 86.5001 126.3 77.3001 127.3C65.5001 128.7 53.2001 126.5 42.6001 121.1C34.9001 117.2 28.0001 111.6 22.5001 104.9C16.6001 97.6998 12.5001 89.0998 10.4001 79.9998C7.80011 68.3998 8.60011 55.9998 12.8001 44.7998C17.1001 33.3998 24.8001 23.2998 34.8001 16.2998C43.8001 9.89979 54.4001 5.99979 65.3001 5.09979ZM55.3001 14.2998C50.6001 18.3998 47.0001 23.5998 44.2001 29.1998C52.3001 29.1998 60.5001 29.1998 68.6001 29.1998C68.6001 22.1998 68.6001 15.2998 68.6001 8.29979C63.7001 8.59979 59.1001 11.0998 55.3001 14.2998ZM72.5001 8.29979C72.5001 15.1998 72.5001 22.1998 72.5001 29.0998C80.5001 29.0998 88.4001 29.0998 96.4001 29.0998C93.7001 23.4998 90.1001 18.2998 85.3001 14.1998C81.8001 11.1998 77.3001 8.79979 72.5001 8.29979ZM49.8001 11.8998C42.8001 14.5998 36.2001 18.5998 30.8001 23.7998C29.0001 25.3998 27.4001 27.2998 25.8001 29.0998C30.8001 29.0998 35.7001 29.0998 40.7001 29.0998C44.0001 21.7998 48.7001 14.7998 55.4001 9.99979C53.5001 10.6998 51.6001 11.1998 49.8001 11.8998ZM85.3001 9.99979C87.7001 11.6998 89.9001 13.6998 91.8001 15.8998C95.2001 19.7998 97.9001 24.2998 100.1 28.9998C105.1 28.9998 110 28.9998 115 28.9998C114.2 27.9998 113.2 27.0998 112.4 26.0998C111.3 24.7998 110 23.7998 108.7 22.5998C102.1 16.6998 93.9001 12.4998 85.3001 9.99979ZM22.8001 32.9998C19.1001 38.2998 16.3001 44.1998 14.5001 50.3998C21.1001 50.3998 27.7001 50.3998 34.3001 50.3998C35.3001 44.4998 36.8001 38.5998 39.0001 32.9998C33.6001 32.9998 28.2001 32.9998 22.8001 32.9998ZM42.2001 33.7998C40.1001 39.0998 38.5001 44.6998 37.6001 50.3998C48.0001 50.3998 58.4001 50.3998 68.7001 50.3998C68.7001 44.5998 68.7001 38.7998 68.7001 32.9998C60.1001 32.9998 51.5001 32.9998 42.9001 32.9998C42.4001 32.8998 42.3001 33.3998 42.2001 33.7998ZM72.5001 32.9998C72.5001 38.7998 72.5001 44.5998 72.5001 50.3998C82.7001 50.3998 92.9001 50.3998 103.1 50.3998C102.2 44.4998 100.4 38.6998 98.2001 33.0998C89.7001 32.8998 81.1001 32.9998 72.5001 32.9998ZM101.8 32.9998C104 38.5998 105.5 44.3998 106.5 50.3998C113.1 50.3998 119.7 50.3998 126.3 50.3998C124.5 44.1998 121.7 38.2998 118 32.9998C112.6 32.9998 107.2 32.9998 101.8 32.9998ZM13.3001 77.0998C20.1001 77.0998 26.8001 77.0998 33.6001 77.0998C32.8001 69.4998 32.8001 61.6998 33.7001 54.0998C27.0001 54.0998 20.2001 54.0998 13.5001 54.0998C12.0001 61.6998 11.9001 69.4998 13.3001 77.0998ZM36.9001 77.0998C47.5001 77.0998 58.1001 77.0998 68.7001 77.0998C68.7001 69.3998 68.7001 61.7998 68.7001 54.0998C58.1001 54.0998 47.6001 54.0998 37.0001 54.0998C36.1001 61.7998 36.1001 69.4998 36.9001 77.0998ZM72.5001 54.1998C72.5001 61.8998 72.5001 69.4998 72.5001 77.1998C82.9001 77.1998 93.4001 77.1998 103.8 77.1998C104.6 69.5998 104.6 61.8998 103.6 54.1998C93.3001 54.1998 82.9001 54.1998 72.5001 54.1998ZM107 54.1998C107.9 61.7998 108 69.4998 107.1 77.1998C113.9 77.1998 120.6 77.1998 127.4 77.1998C128.8 69.5998 128.7 61.7998 127.2 54.1998C120.5 54.1998 113.8 54.1998 107 54.1998ZM14.1001 80.9998C15.8001 87.0998 18.4001 93.0998 21.9001 98.3998C27.4001 98.3998 32.9001 98.3998 38.4001 98.3998C36.3001 92.7998 34.9001 86.9998 34.0001 80.9998C27.4001 80.9998 20.8001 80.8998 14.1001 80.9998ZM37.4001 80.9998C38.2001 86.8998 39.8001 92.6998 42.0001 98.2998C50.9001 98.3998 59.8001 98.2998 68.7001 98.2998C68.7001 92.4998 68.7001 86.6998 68.7001 80.8998C58.3001 80.9998 47.8001 80.9998 37.4001 80.9998ZM72.5001 80.9998C72.5001 86.7998 72.5001 92.5998 72.5001 98.3998C81.2001 98.3998 90.0001 98.4998 98.7001 98.3998C100.8 92.7998 102.4 86.9998 103.3 81.0998C93.1001 80.9998 82.8001 80.9998 72.5001 80.9998ZM102.3 98.2998C107.8 98.2998 113.3 98.2998 118.8 98.2998C122.3 92.9998 125 87.0998 126.6 80.8998C120 80.8998 113.3 80.8998 106.7 80.8998C105.8 86.8998 104.4 92.6998 102.3 98.2998ZM24.7001 102.1C28.5001 106.9 33.0001 111.2 38.1001 114.5C43.4001 118.1 49.3001 120.6 55.4001 122.4C54.0001 121.5 52.7001 120.3 51.5001 119.2C46.5001 114.4 42.8001 108.4 40.0001 102.1C34.9001 102.1 29.8001 102.1 24.7001 102.1ZM43.7001 102.1C46.9001 109 51.4001 115.5 57.7001 120C61.0001 122.2 64.8001 124 68.8001 124.2C68.8001 116.8 68.8001 109.4 68.8001 102.1C60.4001 102.1 52.0001 102.1 43.7001 102.1ZM72.5001 102.1C72.5001 109.5 72.5001 116.8 72.5001 124.2C74.2001 124.1 76.0001 123.6 77.6001 123C81.5001 121.5 85.0001 119 87.9001 115.9C91.8001 111.9 94.7001 107.1 97.1001 102.1C88.9001 102.1 80.7001 102.1 72.5001 102.1ZM100.7 102.2C98.7001 106.9 96.1001 111.3 92.9001 115.3C90.7001 118 88.2001 120.5 85.3001 122.5C86.8001 122 88.4001 121.5 89.9001 121C95.2001 119.1 100.2 116.4 104.7 113.1C108.9 109.9 112.7 106.3 116 102.1C110.9 102.1 105.8 102.1 100.7 102.2Z" fill="black"/>
<path d="M81.8 116.6L83.1 65.2002L119 103L102.7 102.6L114.7 126.8L106.7 130.7L93.9 105.6L81.8 116.6Z" fill="white" stroke="black" stroke-width="4" stroke-miterlimit="10"/>
</svg>
