<?xml version="1.0" standalone="no"?>
<!DOCTYPE svg PUBLIC "-//W3C//DTD SVG 20010904//EN"
 "http://www.w3.org/TR/2001/REC-SVG-20010904/DTD/svg10.dtd">
<svg version="1.0" xmlns="http://www.w3.org/2000/svg"
 width="48.000000pt" height="48.000000pt" viewBox="0 0 48.000000 48.000000"
 preserveAspectRatio="xMidYMid meet">

<g transform="translate(0.000000,48.000000) scale(0.100000,-0.100000)"
fill="#000000" stroke="none">
<path d="M200 460 c-73 -14 -137 -66 -167 -137 -17 -42 -17 -115 1 -158 13
-31 13 -41 0 -86 -9 -28 -13 -53 -11 -56 3 -2 29 2 58 10 45 11 59 11 84 1 38
-16 96 -17 146 -3 154 47 202 260 82 370 -54 51 -123 72 -193 59z m95 -41 c81
-23 145 -122 130 -202 -23 -120 -151 -190 -260 -143 -21 9 -38 10 -58 3 -35
-12 -40 -7 -28 26 8 19 6 36 -4 61 -33 79 -8 181 55 226 54 39 100 47 165 29z"/>
<path d="M145 334 c-66 -66 93 -225 189 -188 25 9 19 43 -9 56 -19 9 -28 9
-37 0 -18 -18 -33 -15 -68 14 -24 21 -30 32 -26 50 14 54 -18 98 -49 68z"/>
</g>
</svg>
