<?xml version="1.0" standalone="no"?>
<!DOCTYPE svg PUBLIC "-//W3C//DTD SVG 20010904//EN"
 "http://www.w3.org/TR/2001/REC-SVG-20010904/DTD/svg10.dtd">
<svg version="1.0" xmlns="http://www.w3.org/2000/svg"
 width="35.000000pt" height="35.000000pt" viewBox="0 0 35.000000 35.000000"
 preserveAspectRatio="xMidYMid meet">

<g transform="translate(0.000000,35.000000) scale(0.100000,-0.100000)"
fill="#000000" stroke="none">
<path d="M127 312 c-11 -12 -16 -33 -15 -58 l1 -39 4 35 c12 94 104 94 116 0
4 -35 4 -35 5 6 2 28 -4 46 -16 57 -25 22 -75 21 -95 -1z"/>
<path d="M94 202 c-26 -17 -35 -52 -24 -87 14 -42 72 -95 105 -95 31 0 84 45
101 86 27 65 -21 123 -80 96 -14 -6 -28 -7 -37 -1 -17 11 -50 11 -65 1z m-7
-74 c-3 -7 -5 -2 -5 12 0 14 2 19 5 13 2 -7 2 -19 0 -25z m109 17 c3 -8 -1
-24 -10 -37 -9 -12 -16 -17 -16 -11 0 7 5 15 10 18 15 10 12 35 -5 35 -8 0
-15 -5 -15 -12 0 -6 -3 -9 -6 -5 -9 9 5 27 22 27 8 0 17 -7 20 -15z"/>
</g>
</svg>
